Coordinates
version=1
nRows=5
nColumns=40
inDegrees=yes

Units are S.I. units (second, meters, Newtons, ...)
Angles are in degrees.

endheader
time	pelvis_tilt	pelvis_list	pelvis_rotation	pelvis_tx	pelvis_ty	pelvis_tz	hip_flexion_r	hip_adduction_r	hip_rotation_r	knee_angle_r	knee_angle_r_beta	ankle_angle_r	subtalar_angle_r	mtp_angle_r	hip_flexion_l	hip_adduction_l	hip_rotation_l	knee_angle_l	knee_angle_l_beta	ankle_angle_l	subtalar_angle_l	mtp_angle_l	lumbar_extension	lumbar_bending	lumbar_rotation	arm_flex_r	arm_add_r	arm_rot_r	elbow_flex_r	pro_sup_r	wrist_flex_r	wrist_dev_r	arm_flex_l	arm_add_l	arm_rot_l	elbow_flex_l	pro_sup_l	wrist_flex_l	wrist_dev_l
     43.17214286	     -1.10173430	     -5.89171245	      2.33144716	      0.99465876	      0.91933474	      0.51607672	     12.44884359	      7.09647032	    -10.99340941	     26.02893921	     26.02893921	     16.11132231	     -7.90257209	     -1.00892078	     29.90118359	    -16.77212313	     -0.29279294	     65.90533087	     65.90533087	     12.88369812	    -19.64109764	     23.12621041	    -11.21704814	      6.43497857	      0.84700800	     19.08363805	    -13.71929941	    -12.19645540	     36.28348442	     46.08825796	      0.00000000	      0.00000000	      7.90484523	     -9.94456899	     -3.04135205	     41.36829679	     46.74299996	      0.00000000	      0.00000000
     43.19178571	     -1.16592654	     -5.75838489	      2.86305311	      0.99338171	      0.91920528	      0.51679973	     12.19515303	      7.00276822	    -11.31408499	     26.01814505	     26.01814505	     16.46177003	     -8.07242863	     -0.77904289	     30.90422419	    -16.38916572	     -0.49458091	     63.28381921	     63.28381921	     14.06390146	    -19.63497075	     23.53669754	    -11.19823960	      6.21511336	      1.05988510	     21.51160435	    -13.95220750	    -11.72230810	     37.66984714	     46.02087357	      0.00000000	      0.00000000	      6.33039791	     -9.15989792	     -2.31444939	     37.80765902	     46.61349434	      0.00000000	      0.00000000
     43.21142857	     -1.28493976	     -5.51938340	      3.34183455	      0.99196873	      0.91928199	      0.51722025	     11.93747473	      6.79287123	    -11.53098102	     25.89166563	     25.89166563	     16.72699641	     -8.20582621	     -0.67640583	     31.62363022	    -15.73889263	     -0.69521113	     59.98352416	     59.98352416	     14.69063120	    -19.60117294	     23.33897658	    -11.19056788	      5.84827094	      1.37225679	     23.89057884	    -14.20795497	    -11.48829003	     39.16564068	     45.96414642	      0.00000000	      0.00000000	      4.42131579	     -8.50237552	     -1.78559717	     35.47292539	     46.50721404	      0.00000000	      0.00000000
     43.23107143	     -1.52993238	     -5.33767446	      3.87805699	      0.99030678	      0.91935764	      0.51714037	     11.80532664	      6.57121099	    -11.92986939	     25.72243489	     25.72243489	     17.02426104	     -8.12070213	     -0.31709207	     32.26013835	    -14.92056653	     -0.62770752	     56.16680066	     56.16680066	     14.50444949	    -19.54983517	     21.87479928	    -11.02280909	      5.62727980	      2.01737036	     25.66999885	    -15.07740364	    -10.36162611	     41.72344084	     45.81370325	      0.00000000	      0.00000000	      3.53860335	     -7.78713310	     -0.26728683	     31.08253123	     46.25339999	      0.00000000	      0.00000000
     43.25071429	     -1.75796795	     -5.05548868	      4.41406680	      0.98856676	      0.91967022	      0.51669330	     11.59611721	      6.23759007	    -12.27040177	     25.44944517	     25.44944517	     17.16960522	     -8.14978722	     -0.30184181	     32.60417787	    -13.82493645	     -0.35825907	     51.98849068	     51.98849068	     14.22416691	    -19.44936273	     21.31769546	    -10.94299261	      5.30074718	      1.97992196	     28.15433416	    -15.20864112	    -10.34081388	     43.63063557	     45.75527257	      0.00000000	      0.00000000	      1.34398966	     -7.43001713	      0.15011429	     29.76691028	     46.14753330	      0.00000000	      0.00000000
